# Blender 3.5.1
# www.blender.org
o projectile_3d
v 0.000000 0.382683 -0.923880
v 0.000000 0.000000 -0.952602
v 0.000000 -2.498666 -0.128290
v 0.146447 0.923880 -0.353553
v 0.270598 0.707107 -0.653281
v 0.353553 0.382683 -0.853553
v 0.364545 0.000000 -0.880089
v 0.049095 -2.498666 -0.118525
v 0.270598 0.923880 -0.270598
v 0.500000 0.707107 -0.500000
v 0.653282 0.382683 -0.653281
v 0.673591 0.000000 -0.673591
v 0.090715 -2.498666 -0.090715
v 0.353553 0.923880 -0.146447
v 0.653281 0.707107 -0.270598
v 0.853553 0.382683 -0.353553
v 0.880089 0.000000 -0.364545
v 0.118525 -2.498666 -0.049095
v 0.382683 0.923880 0.000000
v 0.707107 0.707107 0.000000
v 0.923880 0.382683 0.000000
v 0.952602 0.000000 0.000000
v 0.128290 -2.498666 -0.000000
v 0.353553 0.923880 0.146447
v 0.653281 0.707107 0.270598
v 0.853553 0.382683 0.353554
v 0.880089 0.000000 0.364545
v 0.118525 -2.498666 0.049094
v 0.270598 0.923880 0.270598
v 0.500000 0.707107 0.500000
v 0.653281 0.382683 0.653282
v 0.673591 0.000000 0.673591
v 0.090715 -2.498666 0.090715
v 0.146447 0.923880 0.353553
v 0.270598 0.707107 0.653281
v 0.353553 0.382683 0.853553
v 0.364545 0.000000 0.880090
v 0.049095 -2.498666 0.118525
v -0.000000 0.923880 0.382683
v -0.000000 0.707107 0.707107
v -0.000000 0.382683 0.923879
v -0.000000 0.000000 0.952602
v -0.000000 -2.498666 0.128290
v 0.000000 1.000000 0.000000
v -0.146447 0.923880 0.353553
v -0.270598 0.707107 0.653281
v -0.353554 0.382683 0.853553
v -0.364545 0.000000 0.880089
v -0.049095 -2.498666 0.118525
v -0.270598 0.923880 0.270598
v -0.500000 0.707107 0.500000
v -0.653282 0.382683 0.653281
v -0.673592 0.000000 0.673591
v -0.090715 -2.498666 0.090715
v -0.353553 0.923880 0.146446
v -0.653281 0.707107 0.270598
v -0.853553 0.382683 0.353553
v -0.880090 0.000000 0.364545
v -0.118525 -2.498666 0.049094
v -0.382683 0.923880 -0.000000
v -0.707107 0.707107 -0.000000
v -0.923879 0.382683 -0.000000
v -0.952602 0.000000 -0.000000
v -0.128290 -2.498666 -0.000000
v -0.353553 0.923880 -0.146447
v -0.653281 0.707107 -0.270598
v -0.853553 0.382683 -0.353554
v -0.880089 0.000000 -0.364545
v -0.118525 -2.498666 -0.049095
v -0.270598 0.923880 -0.270598
v -0.500000 0.707107 -0.500000
v -0.653281 0.382683 -0.653282
v -0.673591 0.000000 -0.673592
v -0.090715 -2.498666 -0.090715
v -0.146446 0.923880 -0.353554
v -0.270598 0.707107 -0.653281
v -0.353553 0.382683 -0.853553
v -0.364544 0.000000 -0.880090
v -0.049094 -2.498666 -0.118525
v 0.000000 0.923880 -0.382683
v 0.000000 0.707107 -0.707107
v -0.183720 -1.813662 -0.443541
v -0.233461 -1.360246 -0.563626
v -0.283202 -0.906831 -0.683710
v -0.329963 -0.453415 -0.796602
v -0.339471 -1.813662 -0.339472
v -0.431380 -1.360246 -0.431381
v -0.523289 -0.906831 -0.523289
v -0.609692 -0.453415 -0.609693
v -0.443541 -1.813662 -0.183721
v -0.563625 -1.360246 -0.233462
v -0.683710 -0.906831 -0.283202
v -0.796601 -0.453415 -0.329964
v -0.480085 -1.813662 -0.000000
v -0.610064 -1.360246 -0.000000
v -0.740043 -0.906831 -0.000000
v -0.862235 -0.453415 -0.000000
v -0.443541 -1.813662 0.183720
v -0.563626 -1.360246 0.233461
v -0.683710 -0.906831 0.283202
v -0.796601 -0.453415 0.329963
v -0.339472 -1.813662 0.339471
v -0.431380 -1.360246 0.431380
v -0.523289 -0.906831 0.523289
v -0.609693 -0.453415 0.609692
v -0.183721 -1.813662 0.443541
v -0.233461 -1.360246 0.563625
v -0.283202 -0.906831 0.683710
v -0.329963 -0.453415 0.796601
v -0.000000 -1.813662 0.480085
v -0.000000 -1.360246 0.610064
v -0.000000 -0.906831 0.740043
v -0.000000 -0.453415 0.862235
v 0.183720 -1.813662 0.443541
v 0.233461 -1.360246 0.563626
v 0.283202 -0.906831 0.683710
v 0.329963 -0.453415 0.796601
v 0.339471 -1.813662 0.339471
v 0.431380 -1.360246 0.431380
v 0.523289 -0.906831 0.523289
v 0.609692 -0.453415 0.609692
v 0.443541 -1.813662 0.183721
v 0.563626 -1.360246 0.233461
v 0.683710 -0.906831 0.283202
v 0.796601 -0.453415 0.329963
v 0.480085 -1.813662 0.000000
v 0.610064 -1.360246 0.000000
v 0.740043 -0.906831 0.000000
v 0.862235 -0.453415 0.000000
v 0.443541 -1.813662 -0.183721
v 0.000000 -2.267077 -0.350106
v 0.563626 -1.360246 -0.233461
v 0.133980 -2.267077 -0.323456
v 0.683710 -0.906831 -0.283202
v 0.247563 -2.267077 -0.247563
v 0.796601 -0.453415 -0.329963
v 0.323456 -2.267077 -0.133980
v 0.339472 -1.813662 -0.339471
v 0.350106 -2.267077 -0.000000
v 0.431380 -1.360246 -0.431380
v 0.323456 -2.267077 0.133980
v 0.523289 -0.906831 -0.523289
v 0.247563 -2.267077 0.247563
v 0.609692 -0.453415 -0.609692
v 0.133980 -2.267077 0.323456
v 0.183721 -1.813662 -0.443541
v -0.000000 -2.267077 0.350106
v 0.233461 -1.360246 -0.563626
v -0.133980 -2.267077 0.323456
v 0.283202 -0.906831 -0.683710
v -0.247563 -2.267077 0.247562
v 0.329963 -0.453415 -0.796601
v -0.323456 -2.267077 0.133980
v 0.000000 -1.813662 -0.480085
v -0.350106 -2.267077 -0.000000
v 0.000000 -1.360246 -0.610064
v -0.323456 -2.267077 -0.133980
v 0.000000 -0.906831 -0.740043
v -0.247562 -2.267077 -0.247563
v 0.000000 -0.453415 -0.862235
v -0.133980 -2.267077 -0.323456
v 0.000000 -2.514011 -0.000000
v 0.000000 -2.422428 -0.243789
v 0.093294 -2.422428 -0.225232
v 0.172385 -2.422428 -0.172385
v 0.225232 -2.422428 -0.093294
v 0.243789 -2.422428 -0.000000
v 0.225232 -2.422428 0.093294
v 0.172385 -2.422428 0.172385
v 0.093294 -2.422428 0.225232
v -0.000000 -2.422428 0.243789
v -0.093294 -2.422428 0.225232
v -0.172385 -2.422428 0.172385
v -0.225232 -2.422428 0.093294
v -0.243789 -2.422428 -0.000000
v -0.225232 -2.422428 -0.093294
v -0.172385 -2.422428 -0.172385
v -0.093294 -2.422428 -0.225232
vn -0.0000 0.6952 -0.7189
vn -0.0000 0.9152 -0.4031
vn 0.1543 0.9152 -0.3724
vn 0.2751 0.6952 -0.6641
vn -0.9222 -0.0599 0.3820
vn -0.9982 -0.0599 -0.0000
vn -0.9739 -0.2270 -0.0000
vn -0.8998 -0.2270 0.3727
vn -0.0000 0.3166 -0.9486
vn 0.3630 0.3166 -0.8764
vn -0.0000 1.0000 -0.0000
vn -0.0000 -0.0599 -0.9982
vn 0.3820 -0.0599 -0.9222
vn -0.6886 -0.2270 0.6886
vn -0.8902 -0.2676 0.3687
vn -0.6813 -0.2676 0.6813
vn 0.5083 0.6952 -0.5083
vn 0.6707 0.3166 -0.6707
vn 0.2850 0.9152 -0.2850
vn 0.7058 -0.0599 -0.7058
vn 0.8764 0.3166 -0.3630
vn 0.9222 -0.0599 -0.3820
vn 0.3724 0.9152 -0.1543
vn 0.6641 0.6952 -0.2751
vn -0.3679 -0.2756 0.8881
vn -0.6797 -0.2756 0.6797
vn 0.9486 0.3166 -0.0000
vn 0.9982 -0.0599 -0.0000
vn 0.4031 0.9152 -0.0000
vn 0.7189 0.6952 -0.0000
vn -0.3727 -0.2270 0.8998
vn -0.3687 -0.2676 0.8902
vn -0.0000 -0.2756 0.9613
vn 0.6641 0.6952 0.2751
vn 0.8764 0.3166 0.3630
vn 0.3724 0.9152 0.1543
vn 0.9222 -0.0599 0.3820
vn 0.5083 0.6952 0.5083
vn 0.6707 0.3166 0.6707
vn 0.2850 0.9152 0.2850
vn 0.7058 -0.0599 0.7058
vn -0.0000 -0.2270 0.9739
vn -0.0000 -0.2676 0.9635
vn 0.3630 0.3166 0.8764
vn 0.3820 -0.0599 0.9222
vn 0.1543 0.9152 0.3724
vn 0.2751 0.6952 0.6641
vn 0.3679 -0.2756 0.8881
vn -0.0000 0.9152 0.4031
vn -0.0000 0.6952 0.7189
vn 0.3727 -0.2270 0.8998
vn 0.3687 -0.2676 0.8902
vn -0.0000 0.3166 0.9486
vn -0.0000 -0.0599 0.9982
vn 0.6797 -0.2756 0.6797
vn -0.2751 0.6952 0.6641
vn -0.3630 0.3166 0.8764
vn -0.1543 0.9152 0.3724
vn -0.3820 -0.0599 0.9222
vn -0.2850 0.9152 0.2850
vn -0.6707 0.3166 0.6707
vn -0.7058 -0.0599 0.7058
vn -0.5083 0.6952 0.5083
vn 0.6886 -0.2270 0.6886
vn 0.6813 -0.2676 0.6813
vn -0.8764 0.3166 0.3630
vn -0.3724 0.9152 0.1543
vn -0.6641 0.6952 0.2751
vn 0.8881 -0.2756 0.3679
vn 0.8998 -0.2270 0.3727
vn 0.8902 -0.2676 0.3687
vn -0.7189 0.6952 -0.0000
vn -0.9486 0.3166 -0.0000
vn -0.4031 0.9152 -0.0000
vn 0.9613 -0.2756 -0.0000
vn -0.6641 0.6952 -0.2751
vn -0.8764 0.3166 -0.3630
vn -0.3724 0.9152 -0.1543
vn -0.9222 -0.0599 -0.3820
vn -0.6707 0.3166 -0.6707
vn -0.7058 -0.0599 -0.7058
vn -0.2850 0.9152 -0.2850
vn -0.5083 0.6952 -0.5083
vn 0.9739 -0.2270 -0.0000
vn 0.9635 -0.2676 -0.0000
vn -0.3630 0.3166 -0.8764
vn -0.3820 -0.0599 -0.9222
vn -0.1543 0.9152 -0.3724
vn -0.2751 0.6952 -0.6641
vn 0.8881 -0.2756 -0.3679
vn 0.8998 -0.2270 -0.3727
vn 0.8902 -0.2676 -0.3687
vn -0.8881 -0.2756 0.3679
vn -0.3727 -0.2270 -0.8998
vn -0.0000 -0.2270 -0.9739
vn -0.0000 -0.2676 -0.9635
vn -0.3687 -0.2676 -0.8902
vn -0.6797 -0.2756 -0.6797
vn -0.3679 -0.2756 -0.8881
vn -0.0000 -0.2756 -0.9613
vn -0.6813 -0.2676 -0.6813
vn -0.6886 -0.2270 -0.6886
vn 0.3727 -0.2270 -0.8998
vn 0.3687 -0.2676 -0.8902
vn -0.8881 -0.2756 -0.3679
vn 0.3679 -0.2756 -0.8881
vn -0.8902 -0.2676 -0.3687
vn -0.8998 -0.2270 -0.3727
vn 0.6886 -0.2270 -0.6886
vn 0.6813 -0.2676 -0.6813
vn -0.9613 -0.2756 -0.0000
vn 0.6797 -0.2756 -0.6797
vn -0.9635 -0.2676 -0.0000
vn -0.2728 -0.7012 -0.6587
vn -0.3476 -0.4182 -0.8392
vn -0.0000 -0.4182 -0.9084
vn -0.0000 -0.7012 -0.7130
vn -0.6423 -0.4182 -0.6423
vn -0.5041 -0.7012 -0.5041
vn -0.8392 -0.4182 -0.3476
vn -0.6587 -0.7012 -0.2728
vn -0.9084 -0.4182 -0.0000
vn -0.7130 -0.7012 -0.0000
vn -0.8392 -0.4182 0.3476
vn -0.6587 -0.7012 0.2728
vn -0.6423 -0.4182 0.6423
vn -0.5041 -0.7012 0.5041
vn -0.3476 -0.4182 0.8392
vn -0.2728 -0.7012 0.6587
vn -0.0000 -0.4182 0.9084
vn -0.0000 -0.7012 0.7130
vn 0.3476 -0.4182 0.8392
vn 0.2728 -0.7012 0.6587
vn 0.6423 -0.4182 0.6423
vn 0.5041 -0.7012 0.5041
vn 0.8392 -0.4182 0.3476
vn 0.6587 -0.7012 0.2728
vn 0.9084 -0.4182 -0.0000
vn 0.7130 -0.7012 -0.0000
vn 0.8392 -0.4182 -0.3476
vn 0.6587 -0.7012 -0.2728
vn 0.6423 -0.4182 -0.6423
vn 0.5041 -0.7012 -0.5041
vn 0.3476 -0.4182 -0.8392
vn 0.2728 -0.7012 -0.6587
vn -0.3689 -0.9295 -0.0000
vn -0.3408 -0.9295 -0.1412
vn -0.0000 -1.0000 -0.0000
vn 0.1412 -0.9295 0.3408
vn -0.0000 -0.9295 0.3689
vn 0.3689 -0.9295 -0.0000
vn 0.3408 -0.9295 0.1412
vn -0.1412 -0.9295 0.3408
vn -0.2608 -0.9295 -0.2608
vn 0.3408 -0.9295 -0.1412
vn 0.1412 -0.9295 -0.3408
vn 0.2608 -0.9295 -0.2608
vn -0.2608 -0.9295 0.2608
vn -0.0000 -0.9295 -0.3689
vn 0.2608 -0.9295 0.2608
vn -0.3408 -0.9295 0.1412
vn -0.1412 -0.9295 -0.3408
vt 0.750000 0.824327
vt 0.750000 0.715425
vt 0.750000 0.004367
vt 0.687500 0.978338
vt 0.687500 0.916650
vt 0.687500 0.824327
vt 0.687500 0.715425
vt 0.687500 0.004367
vt 0.625000 0.978338
vt 0.625000 0.916650
vt 0.625000 0.824327
vt 0.625000 0.715425
vt 0.625000 0.004367
vt 0.562500 0.978338
vt 0.562500 0.916650
vt 0.562500 0.824327
vt 0.562500 0.715425
vt 0.562500 0.004367
vt 0.500000 0.978338
vt 0.500000 0.916650
vt 0.500000 0.824327
vt 0.500000 0.715425
vt 0.500000 0.004367
vt 0.437500 0.978338
vt 0.437500 0.916650
vt 0.437500 0.824327
vt 0.437500 0.715425
vt 0.437500 0.004367
vt 0.375000 0.978338
vt 0.375000 0.916650
vt 0.375000 0.824327
vt 0.375000 0.715425
vt 0.375000 0.004367
vt 0.312500 0.978338
vt 0.312500 0.916650
vt 0.312500 0.824327
vt 0.312500 0.715425
vt 0.312500 0.004367
vt 0.250000 0.978338
vt 0.250000 0.916650
vt 0.250000 0.824327
vt 0.250000 0.715425
vt 0.250000 0.004367
vt 0.718750 1.000000
vt 0.656250 1.000000
vt 0.593750 1.000000
vt 0.531250 1.000000
vt 0.468750 1.000000
vt 0.406250 1.000000
vt 0.343750 1.000000
vt 0.281250 1.000000
vt 0.218750 1.000000
vt 0.156250 1.000000
vt 0.093750 1.000000
vt 0.031250 1.000000
vt 0.968750 1.000000
vt 0.906250 1.000000
vt 0.843750 1.000000
vt 0.781250 1.000000
vt 0.187500 0.978338
vt 0.187500 0.916650
vt 0.187500 0.824327
vt 0.187500 0.715425
vt 0.187500 0.004367
vt 0.125000 0.978338
vt 0.125000 0.916650
vt 0.125000 0.824327
vt 0.125000 0.715425
vt 0.125000 0.004367
vt 0.062500 0.978338
vt 0.062500 0.916650
vt 0.062500 0.824327
vt 0.062500 0.715425
vt 0.062500 0.004367
vt 0.000000 0.978338
vt 1.000000 0.978338
vt 0.000000 0.916650
vt 1.000000 0.916650
vt 0.000000 0.824327
vt 1.000000 0.824327
vt 0.000000 0.715425
vt 1.000000 0.715425
vt 0.000000 0.004367
vt 1.000000 0.004367
vt 0.937500 0.978338
vt 0.937500 0.916650
vt 0.937500 0.824327
vt 0.937500 0.715425
vt 0.937500 0.004367
vt 0.875000 0.978338
vt 0.875000 0.916650
vt 0.875000 0.824327
vt 0.875000 0.715425
vt 0.875000 0.004367
vt 0.812500 0.978338
vt 0.812500 0.916650
vt 0.812500 0.824327
vt 0.812500 0.715425
vt 0.812500 0.004367
vt 0.750000 0.978338
vt 0.750000 0.916650
vt 0.812500 0.199302
vt 0.812500 0.328333
vt 0.812500 0.457363
vt 0.812500 0.586394
vt 0.875000 0.199302
vt 0.875000 0.328333
vt 0.875000 0.457363
vt 0.875000 0.586394
vt 0.937500 0.199302
vt 0.937500 0.328333
vt 0.937500 0.457363
vt 0.937500 0.586394
vt 1.000000 0.199302
vt 0.000000 0.199302
vt 1.000000 0.328333
vt 0.000000 0.328333
vt 1.000000 0.457363
vt 0.000000 0.457363
vt 1.000000 0.586394
vt 0.000000 0.586394
vt 0.062500 0.199302
vt 0.062500 0.328333
vt 0.062500 0.457363
vt 0.062500 0.586394
vt 0.125000 0.199302
vt 0.125000 0.328333
vt 0.125000 0.457363
vt 0.125000 0.586394
vt 0.187500 0.199302
vt 0.187500 0.328333
vt 0.187500 0.457363
vt 0.187500 0.586394
vt 0.250000 0.199302
vt 0.250000 0.328333
vt 0.250000 0.457363
vt 0.250000 0.586394
vt 0.312500 0.199302
vt 0.312500 0.328333
vt 0.312500 0.457363
vt 0.312500 0.586394
vt 0.375000 0.199302
vt 0.375000 0.328333
vt 0.375000 0.457363
vt 0.375000 0.586394
vt 0.437500 0.199302
vt 0.437500 0.328333
vt 0.437500 0.457363
vt 0.437500 0.586394
vt 0.500000 0.199302
vt 0.500000 0.328333
vt 0.500000 0.457363
vt 0.500000 0.586394
vt 0.562500 0.199302
vt 0.750000 0.070271
vt 0.562500 0.328333
vt 0.687500 0.070271
vt 0.562500 0.457363
vt 0.625000 0.070271
vt 0.562500 0.586394
vt 0.562500 0.070271
vt 0.625000 0.199302
vt 0.500000 0.070271
vt 0.625000 0.328333
vt 0.437500 0.070271
vt 0.625000 0.457363
vt 0.375000 0.070271
vt 0.625000 0.586394
vt 0.312500 0.070271
vt 0.687500 0.199302
vt 0.250000 0.070271
vt 0.687500 0.328333
vt 0.187500 0.070271
vt 0.687500 0.457363
vt 0.125000 0.070271
vt 0.687500 0.586394
vt 0.062500 0.070271
vt 0.750000 0.199302
vt 1.000000 0.070271
vt 0.000000 0.070271
vt 0.750000 0.328333
vt 0.937500 0.070271
vt 0.750000 0.457363
vt 0.875000 0.070271
vt 0.750000 0.586394
vt 0.812500 0.070271
vt 0.968750 0.000000
vt 0.281250 0.000000
vt 0.468750 0.000000
vt 0.218750 0.000000
vt 0.906250 0.000000
vt 0.531250 0.000000
vt 0.656250 0.000000
vt 0.156250 0.000000
vt 0.718750 0.000000
vt 0.343750 0.000000
vt 0.093750 0.000000
vt 0.593750 0.000000
vt 0.406250 0.000000
vt 0.031250 0.000000
vt 0.781250 0.000000
vt 0.843750 0.000000
vt 0.750000 0.026062
vt 0.687500 0.026062
vt 0.625000 0.026062
vt 0.562500 0.026062
vt 0.500000 0.026062
vt 0.437500 0.026062
vt 0.375000 0.026062
vt 0.312500 0.026062
vt 0.250000 0.026062
vt 0.187500 0.026062
vt 0.125000 0.026062
vt 0.062500 0.026062
vt 0.000000 0.026062
vt 1.000000 0.026062
vt 0.937500 0.026062
vt 0.875000 0.026062
vt 0.812500 0.026062
s 1
f 81/101/1 80/100/2 4/4/3 5/5/4
f 58/73/5 63/81/6 97/121/7 101/125/8
f 1/1/9 81/101/1 5/5/4 6/6/10
f 80/100/2 44/44/11 4/4/3
f 2/2/12 1/1/9 6/6/10 7/7/13
f 105/129/14 101/125/8 100/124/15 104/128/16
f 6/6/10 5/5/4 10/10/17 11/11/18
f 4/4/3 44/45/11 9/9/19
f 7/7/13 6/6/10 11/11/18 12/12/20
f 5/5/4 4/4/3 9/9/19 10/10/17
f 12/12/20 11/11/18 16/16/21 17/17/22
f 10/10/17 9/9/19 14/14/23 15/15/24
f 107/131/25 103/127/26 102/126/26 106/130/25
f 11/11/18 10/10/17 15/15/24 16/16/21
f 9/9/19 44/46/11 14/14/23
f 17/17/22 16/16/21 21/21/27 22/22/28
f 15/15/24 14/14/23 19/19/29 20/20/30
f 109/133/31 105/129/14 104/128/16 108/132/32
f 16/16/21 15/15/24 20/20/30 21/21/27
f 14/14/23 44/47/11 19/19/29
f 111/135/33 107/131/25 106/130/25 110/134/33
f 21/21/27 20/20/30 25/25/34 26/26/35
f 19/19/29 44/48/11 24/24/36
f 22/22/28 21/21/27 26/26/35 27/27/37
f 20/20/30 19/19/29 24/24/36 25/25/34
f 26/26/35 25/25/34 30/30/38 31/31/39
f 24/24/36 44/49/11 29/29/40
f 27/27/37 26/26/35 31/31/39 32/32/41
f 25/25/34 24/24/36 29/29/40 30/30/38
f 113/137/42 109/133/31 108/132/32 112/136/43
f 32/32/41 31/31/39 36/36/44 37/37/45
f 30/30/38 29/29/40 34/34/46 35/35/47
f 115/139/48 111/135/33 110/134/33 114/138/48
f 31/31/39 30/30/38 35/35/47 36/36/44
f 29/29/40 44/50/11 34/34/46
f 35/35/47 34/34/46 39/39/49 40/40/50
f 117/141/51 113/137/42 112/136/43 116/140/52
f 36/36/44 35/35/47 40/40/50 41/41/53
f 34/34/46 44/51/11 39/39/49
f 37/37/45 36/36/44 41/41/53 42/42/54
f 119/143/55 115/139/48 114/138/48 118/142/55
f 41/41/53 40/40/50 46/61/56 47/62/57
f 39/39/49 44/52/11 45/60/58
f 42/42/54 41/41/53 47/62/57 48/63/59
f 40/40/50 39/39/49 45/60/58 46/61/56
f 45/60/58 44/53/11 50/65/60
f 48/63/59 47/62/57 52/67/61 53/68/62
f 46/61/56 45/60/58 50/65/60 51/66/63
f 121/145/64 117/141/51 116/140/52 120/144/65
f 47/62/57 46/61/56 51/66/63 52/67/61
f 53/68/62 52/67/61 57/72/66 58/73/5
f 51/66/63 50/65/60 55/70/67 56/71/68
f 123/147/69 119/143/55 118/142/55 122/146/69
f 52/67/61 51/66/63 56/71/68 57/72/66
f 50/65/60 44/54/11 55/70/67
f 125/149/70 121/145/64 120/144/65 124/148/71
f 57/72/66 56/71/68 61/77/72 62/79/73
f 55/70/67 44/55/11 60/75/74
f 58/73/5 57/72/66 62/79/73 63/81/6
f 56/71/68 55/70/67 60/75/74 61/77/72
f 127/151/75 123/147/69 122/146/69 126/150/75
f 62/80/73 61/78/72 66/86/76 67/87/77
f 60/76/74 44/56/11 65/85/78
f 63/82/6 62/80/73 67/87/77 68/88/79
f 61/78/72 60/76/74 65/85/78 66/86/76
f 68/88/79 67/87/77 72/92/80 73/93/81
f 66/86/76 65/85/78 70/90/82 71/91/83
f 129/153/84 125/149/70 124/148/71 128/152/85
f 67/87/77 66/86/76 71/91/83 72/92/80
f 65/85/78 44/57/11 70/90/82
f 73/93/81 72/92/80 77/97/86 78/98/87
f 71/91/83 70/90/82 75/95/88 76/96/89
f 132/156/90 127/151/75 126/150/75 130/154/90
f 72/92/80 71/91/83 76/96/89 77/97/86
f 70/90/82 44/58/11 75/95/88
f 136/160/91 129/153/84 128/152/85 134/158/92
f 77/97/86 76/96/89 81/101/1 1/1/9
f 75/95/88 44/59/11 80/100/2
f 78/98/87 77/97/86 1/1/9 2/2/12
f 76/96/89 75/95/88 80/100/2 81/101/1
f 104/128/16 100/124/15 99/123/93 103/127/26
f 53/68/62 58/73/5 101/125/8 105/129/14
f 108/132/32 104/128/16 103/127/26 107/131/25
f 48/63/59 53/68/62 105/129/14 109/133/31
f 112/136/43 108/132/32 107/131/25 111/135/33
f 42/42/54 48/63/59 109/133/31 113/137/42
f 116/140/52 112/136/43 111/135/33 115/139/48
f 37/37/45 42/42/54 113/137/42 117/141/51
f 120/144/65 116/140/52 115/139/48 119/143/55
f 32/32/41 37/37/45 117/141/51 121/145/64
f 124/148/71 120/144/65 119/143/55 123/147/69
f 27/27/37 32/32/41 121/145/64 125/149/70
f 128/152/85 124/148/71 123/147/69 127/151/75
f 22/22/28 27/27/37 125/149/70 129/153/84
f 134/158/92 128/152/85 127/151/75 132/156/90
f 103/127/26 99/123/93 98/122/93 102/126/26
f 85/105/94 160/185/95 158/183/96 84/104/97
f 87/107/98 83/103/99 82/102/99 86/106/98
f 84/104/97 158/183/96 156/181/100 83/103/99
f 88/108/101 84/104/97 83/103/99 87/107/98
f 83/103/99 156/181/100 154/178/100 82/102/99
f 89/109/102 85/105/94 84/104/97 88/108/101
f 2/2/12 7/7/13 152/176/103 160/185/95
f 73/93/81 78/98/87 85/105/94 89/109/102
f 160/185/95 152/176/103 150/174/104 158/183/96
f 91/111/105 87/107/98 86/106/98 90/110/105
f 158/183/96 150/174/104 148/172/106 156/181/100
f 92/112/107 88/108/101 87/107/98 91/111/105
f 156/181/100 148/172/106 146/170/106 154/178/100
f 93/113/108 89/109/102 88/108/101 92/112/107
f 7/7/13 12/12/20 144/168/109 152/176/103
f 68/88/79 73/93/81 89/109/102 93/113/108
f 152/176/103 144/168/109 142/166/110 150/174/104
f 95/116/111 91/111/105 90/110/105 94/114/111
f 150/174/104 142/166/110 140/164/112 148/172/106
f 96/118/113 92/112/107 91/111/105 95/116/111
f 148/172/106 140/164/112 138/162/112 146/170/106
f 97/120/7 93/113/108 92/112/107 96/118/113
f 12/12/20 17/17/22 136/160/91 144/168/109
f 63/82/6 68/88/79 93/113/108 97/120/7
f 144/168/109 136/160/91 134/158/92 142/166/110
f 99/123/93 95/117/111 94/115/111 98/122/93
f 142/166/110 134/158/92 132/156/90 140/164/112
f 100/124/15 96/119/113 95/117/111 99/123/93
f 140/164/112 132/156/90 130/154/90 138/162/112
f 101/125/8 97/121/7 96/119/113 100/124/15
f 17/17/22 22/22/28 129/153/84 136/160/91
f 178/219/114 161/186/115 131/155/116 163/203/117
f 86/106/98 82/102/99 161/186/115 159/184/118
f 177/218/119 159/184/118 161/186/115 178/219/114
f 90/110/105 86/106/98 159/184/118 157/182/120
f 176/217/121 157/182/120 159/184/118 177/218/119
f 94/114/111 90/110/105 157/182/120 155/179/122
f 175/216/123 155/179/122 157/182/120 176/217/121
f 98/122/93 94/115/111 155/180/122 153/177/124
f 174/214/125 153/177/124 155/180/122 175/215/123
f 102/126/26 98/122/93 153/177/124 151/175/126
f 173/213/127 151/175/126 153/177/124 174/214/125
f 106/130/25 102/126/26 151/175/126 149/173/128
f 172/212/129 149/173/128 151/175/126 173/213/127
f 110/134/33 106/130/25 149/173/128 147/171/130
f 171/211/131 147/171/130 149/173/128 172/212/129
f 114/138/48 110/134/33 147/171/130 145/169/132
f 170/210/133 145/169/132 147/171/130 171/211/131
f 118/142/55 114/138/48 145/169/132 143/167/134
f 169/209/135 143/167/134 145/169/132 170/210/133
f 122/146/69 118/142/55 143/167/134 141/165/136
f 168/208/137 141/165/136 143/167/134 169/209/135
f 126/150/75 122/146/69 141/165/136 139/163/138
f 167/207/139 139/163/138 141/165/136 168/208/137
f 130/154/90 126/150/75 139/163/138 137/161/140
f 166/206/141 137/161/140 139/163/138 167/207/139
f 138/162/112 130/154/90 137/161/140 135/159/142
f 165/205/143 135/159/142 137/161/140 166/206/141
f 146/170/106 138/162/112 135/159/142 133/157/144
f 164/204/145 133/157/144 135/159/142 165/205/143
f 154/178/100 146/170/106 133/157/144 131/155/116
f 163/203/117 131/155/116 133/157/144 164/204/145
f 78/98/87 2/2/12 160/185/95 85/105/94
f 64/84/146 69/89/147 162/187/148
f 38/38/149 43/43/150 162/188/148
f 23/23/151 28/28/152 162/189/148
f 43/43/150 49/64/153 162/190/148
f 69/89/147 74/94/154 162/191/148
f 18/18/155 23/23/151 162/192/148
f 8/8/156 13/13/157 162/193/148
f 49/64/153 54/69/158 162/194/148
f 3/3/159 8/8/156 162/195/148
f 33/33/160 38/38/149 162/196/148
f 54/69/158 59/74/161 162/197/148
f 13/13/157 18/18/155 162/198/148
f 28/28/152 33/33/160 162/199/148
f 59/74/161 64/83/146 162/200/148
f 79/99/162 3/3/159 162/201/148
f 74/94/154 79/99/162 162/202/148
f 3/3/159 163/203/117 164/204/145 8/8/156
f 8/8/156 164/204/145 165/205/143 13/13/157
f 13/13/157 165/205/143 166/206/141 18/18/155
f 18/18/155 166/206/141 167/207/139 23/23/151
f 23/23/151 167/207/139 168/208/137 28/28/152
f 28/28/152 168/208/137 169/209/135 33/33/160
f 33/33/160 169/209/135 170/210/133 38/38/149
f 38/38/149 170/210/133 171/211/131 43/43/150
f 43/43/150 171/211/131 172/212/129 49/64/153
f 49/64/153 172/212/129 173/213/127 54/69/158
f 54/69/158 173/213/127 174/214/125 59/74/161
f 59/74/161 174/214/125 175/215/123 64/83/146
f 64/84/146 175/216/123 176/217/121 69/89/147
f 69/89/147 176/217/121 177/218/119 74/94/154
f 74/94/154 177/218/119 178/219/114 79/99/162
f 79/99/162 178/219/114 163/203/117 3/3/159
f 82/102/99 154/178/100 131/155/116 161/186/115
