# Blender 3.5.1
# www.blender.org
o SmallSplatter
v 0.000000 0.172905 -0.832656
v 0.000000 -2.258429 -0.160453
v 0.307480 0.617655 -0.307480
v 0.588777 0.172905 -0.588776
v 0.113458 -2.258429 -0.113458
v 0.434843 0.617655 -0.000000
v 0.832656 0.172905 0.000000
v 0.160453 -2.258430 0.000000
v 0.307480 0.617655 0.307480
v 0.588776 0.172905 0.588777
v 0.113458 -2.258429 0.113458
v -0.000000 0.617655 0.434843
v -0.000000 0.172905 0.832655
v -0.000000 -2.258430 0.160454
v 0.000000 0.707018 -0.000000
v -0.307480 0.617655 0.307480
v -0.588777 0.172905 0.588776
v -0.113458 -2.258429 0.113458
v -0.434843 0.617655 -0.000000
v -0.832655 0.172905 -0.000000
v -0.160453 -2.258429 0.000000
v -0.307480 0.617655 -0.307481
v -0.588776 0.172905 -0.588777
v -0.113458 -2.258429 -0.113458
v 0.000000 0.617654 -0.434843
v -0.455511 -1.295454 -0.455512
v -0.606870 -0.519712 -0.606871
v -0.644191 -1.295454 -0.000000
v -0.858245 -0.519712 -0.000000
v -0.455512 -1.295454 0.455511
v -0.606871 -0.519712 0.606870
v -0.000000 -1.295454 0.644191
v -0.000000 -0.519712 0.858244
v 0.455512 -1.295454 0.455512
v 0.606870 -0.519712 0.606871
v 0.644191 -1.295454 0.000000
v 0.858244 -0.519712 0.000000
v 0.000000 -1.972058 -0.383623
v 0.271262 -1.972058 -0.271262
v 0.383623 -1.972058 0.000000
v 0.455512 -1.295454 -0.455511
v 0.271262 -1.972058 0.271263
v 0.606870 -0.519712 -0.606870
v -0.000000 -1.972058 0.383623
v -0.271262 -1.972058 0.271262
v -0.383623 -1.972058 0.000000
v 0.000000 -1.295454 -0.644191
v -0.271262 -1.972058 -0.271262
v 0.000000 -0.519712 -0.858245
v 0.000000 -2.301875 0.000000
vn 0.9375 0.3480 -0.0000
vn 0.5526 0.8334 -0.0000
vn 0.3908 0.8334 0.3908
vn 0.6629 0.3480 0.6629
vn -0.0000 1.0000 -0.0000
vn -0.3908 0.8334 -0.3908
vn -0.5526 0.8334 -0.0000
vn -0.7027 -0.1118 -0.7027
vn -0.6629 0.3480 -0.6629
vn -0.0000 0.3480 -0.9375
vn -0.0000 -0.1118 -0.9937
vn 0.6629 0.3480 -0.6629
vn 0.7027 -0.1118 -0.7027
vn -0.0000 0.8334 -0.5526
vn 0.3908 0.8334 -0.3908
vn -0.7027 -0.1118 0.7027
vn -0.0000 -0.1118 0.9937
vn -0.0000 0.3480 0.9375
vn -0.6629 0.3480 0.6629
vn 0.7027 -0.1118 0.7027
vn 0.9937 -0.1118 -0.0000
vn -0.4267 -0.7974 0.4267
vn -0.0000 -1.0000 -0.0000
vn -0.0000 -0.7974 0.6035
vn -0.3908 0.8334 0.3908
vn -0.0000 0.8334 0.5526
vn -0.9375 0.3480 -0.0000
vn 0.6213 -0.4776 0.6213
vn 0.6724 -0.3096 0.6724
vn -0.0000 -0.3096 0.9509
vn -0.0000 -0.4776 0.8786
vn -0.9937 -0.1118 -0.0000
vn 0.4267 -0.7974 0.4267
vn 0.6035 -0.7974 -0.0000
vn -0.8786 -0.4776 -0.0000
vn -0.9509 -0.3096 -0.0000
vn -0.6724 -0.3096 -0.6724
vn -0.6213 -0.4776 -0.6213
vn -0.0000 -0.3096 -0.9509
vn -0.6035 -0.7974 -0.0000
vn 0.9509 -0.3096 -0.0000
vn 0.6724 -0.3096 -0.6724
vn 0.6213 -0.4776 -0.6213
vn 0.8786 -0.4776 -0.0000
vn -0.6213 -0.4776 0.6213
vn -0.6724 -0.3096 0.6724
vn -0.0000 -0.4776 -0.8786
vn -0.0000 -0.7974 -0.6035
vn -0.4267 -0.7974 -0.4267
vn 0.4267 -0.7974 -0.4267
vt 0.750000 0.822488
vt 0.750000 0.014439
vt 0.625000 0.970300
vt 0.625000 0.822488
vt 0.625000 0.014439
vt 0.500000 0.970300
vt 0.500000 0.822488
vt 0.500000 0.014439
vt 0.375000 0.970300
vt 0.375000 0.822488
vt 0.375000 0.014439
vt 0.250000 0.970300
vt 0.250000 0.822488
vt 0.250000 0.014439
vt 0.937500 1.000000
vt 0.437500 1.000000
vt 0.187500 1.000000
vt 0.687500 1.000000
vt 0.812500 1.000000
vt 0.062500 1.000000
vt 0.312500 1.000000
vt 0.562500 1.000000
vt 0.125000 0.970300
vt 0.125000 0.822488
vt 0.125000 0.014439
vt 1.000000 0.970300
vt 0.000000 0.970300
vt 1.000000 0.822488
vt 0.000000 0.822488
vt 1.000000 0.014439
vt 0.000000 0.014439
vt 0.875000 0.970300
vt 0.875000 0.822488
vt 0.875000 0.014439
vt 0.750000 0.970300
vt 0.875000 0.334482
vt 0.875000 0.592299
vt 0.000000 0.334482
vt 1.000000 0.334482
vt 0.000000 0.592299
vt 1.000000 0.592299
vt 0.125000 0.334482
vt 0.125000 0.592299
vt 0.250000 0.334482
vt 0.250000 0.592299
vt 0.375000 0.334482
vt 0.375000 0.592299
vt 0.500000 0.334482
vt 0.500000 0.592299
vt 0.750000 0.109614
vt 0.625000 0.109614
vt 0.500000 0.109614
vt 0.625000 0.334482
vt 0.375000 0.109614
vt 0.625000 0.592299
vt 0.250000 0.109614
vt 0.125000 0.109614
vt 1.000000 0.109614
vt 0.000000 0.109614
vt 0.750000 0.334482
vt 0.875000 0.109614
vt 0.750000 0.592299
vt 0.187500 0.000000
vt 0.437500 0.000000
vt 0.062500 0.000000
vt 0.312500 0.000000
vt 0.812500 0.000000
vt 0.687500 0.000000
vt 0.937500 0.000000
vt 0.562500 0.000000
s 1
f 7/7/1 6/6/2 9/9/3 10/10/4
f 15/15/5 22/32/6 19/26/7
f 27/37/8 23/33/9 1/1/10 49/62/11
f 15/16/5 9/9/3 6/6/2
f 49/62/11 1/1/10 4/4/12 43/55/13
f 25/35/14 3/3/15 4/4/12 1/1/10
f 31/43/16 33/45/17 13/13/18 17/24/19
f 35/47/20 37/49/21 7/7/1 10/10/4
f 18/25/22 50/63/23 14/14/24
f 16/23/25 17/24/19 13/13/18 12/12/26
f 15/17/5 16/23/25 12/12/26
f 23/33/9 20/28/27 19/26/7 22/32/6
f 20/29/27 17/24/19 16/23/25 19/27/7
f 42/54/28 34/46/29 32/44/30 44/56/31
f 27/37/8 29/41/32 20/28/27 23/33/9
f 15/18/5 3/3/15 25/35/14
f 11/11/33 50/64/23 8/8/34
f 15/19/5 25/35/14 22/32/6
f 46/58/35 28/39/36 26/36/37 48/61/38
f 47/60/39 26/36/37 27/37/8 49/62/11
f 4/4/12 3/3/15 6/6/2 7/7/1
f 21/31/40 50/65/23 18/25/22
f 1/1/10 23/33/9 22/32/6 25/35/14
f 14/14/24 50/66/23 11/11/33
f 15/20/5 19/27/7 16/23/25
f 37/49/21 36/48/41 41/53/42 43/55/13
f 39/51/43 41/53/42 36/48/41 40/52/44
f 47/60/39 49/62/11 43/55/13 41/53/42
f 15/21/5 12/12/26 9/9/3
f 45/57/45 30/42/46 28/38/36 46/59/35
f 48/61/38 26/36/37 47/60/39 38/50/47
f 44/56/31 32/44/30 30/42/46 45/57/45
f 31/43/16 29/40/32 28/38/36 30/42/46
f 2/2/48 50/67/23 24/34/49
f 43/55/13 4/4/12 7/7/1 37/49/21
f 33/45/17 31/43/16 30/42/46 32/44/30
f 12/12/26 13/13/18 10/10/4 9/9/3
f 5/5/50 50/68/23 2/2/48
f 35/47/20 33/45/17 32/44/30 34/46/29
f 37/49/21 35/47/20 34/46/29 36/48/41
f 39/51/43 38/50/47 47/60/39 41/53/42
f 48/61/38 24/34/49 21/30/40 46/58/35
f 14/14/24 11/11/33 42/54/28 44/56/31
f 11/11/33 8/8/34 40/52/44 42/54/28
f 40/52/44 36/48/41 34/46/29 42/54/28
f 8/8/34 5/5/50 39/51/43 40/52/44
f 2/2/48 24/34/49 48/61/38 38/50/47
f 5/5/50 2/2/48 38/50/47 39/51/43
f 33/45/17 35/47/20 10/10/4 13/13/18
f 29/40/32 31/43/16 17/24/19 20/29/27
f 24/34/49 50/69/23 21/30/40
f 45/57/45 18/25/22 14/14/24 44/56/31
f 21/31/40 18/25/22 45/57/45 46/59/35
f 8/8/34 50/70/23 5/5/50
f 15/22/5 6/6/2 3/3/15
f 29/41/32 27/37/8 26/36/37 28/39/36
